<mxfile host="65bd71144e">
    <diagram id="mrmWcMEhstddbkppO6Fu" name="Page-1">
        <mxGraphModel dx="386" dy="813" grid="1" gridSize="32" guides="1" tooltips="1" connect="1" arrows="1" fold="1" page="0" pageScale="1" pageWidth="850" pageHeight="1100" math="0" shadow="0">
            <root>
                <mxCell id="0"/>
                <mxCell id="1" parent="0"/>
                <mxCell id="36" value="" style="rounded=0;whiteSpace=wrap;html=1;fillColor=none;strokeColor=#000000;strokeWidth=1;" vertex="1" parent="1">
                    <mxGeometry x="1024" y="256" width="1088" height="1088" as="geometry"/>
                </mxCell>
                <mxCell id="18" value="" style="rounded=0;whiteSpace=wrap;html=1;fillColor=#f8cecc;strokeColor=#b85450;opacity=30;" vertex="1" parent="1">
                    <mxGeometry x="1152" y="384" width="832" height="832" as="geometry"/>
                </mxCell>
                <mxCell id="19" value="4x4" style="rounded=0;whiteSpace=wrap;html=1;fillColor=#dae8fc;strokeColor=#6c8ebf;opacity=50;" vertex="1" parent="1">
                    <mxGeometry x="1216" y="448" width="128" height="128" as="geometry"/>
                </mxCell>
                <mxCell id="20" value="4x4" style="rounded=0;whiteSpace=wrap;html=1;fillColor=#dae8fc;strokeColor=#6c8ebf;opacity=50;" vertex="1" parent="1">
                    <mxGeometry x="1408" y="448" width="128" height="128" as="geometry"/>
                </mxCell>
                <mxCell id="21" value="4x4" style="rounded=0;whiteSpace=wrap;html=1;fillColor=#dae8fc;strokeColor=#6c8ebf;opacity=50;" vertex="1" parent="1">
                    <mxGeometry x="1600" y="448" width="128" height="128" as="geometry"/>
                </mxCell>
                <mxCell id="22" value="4x4" style="rounded=0;whiteSpace=wrap;html=1;fillColor=#dae8fc;strokeColor=#6c8ebf;opacity=50;" vertex="1" parent="1">
                    <mxGeometry x="1792" y="448" width="128" height="128" as="geometry"/>
                </mxCell>
                <mxCell id="23" value="4x4" style="rounded=0;whiteSpace=wrap;html=1;fillColor=#dae8fc;strokeColor=#6c8ebf;opacity=50;" vertex="1" parent="1">
                    <mxGeometry x="1216" y="640" width="128" height="128" as="geometry"/>
                </mxCell>
                <mxCell id="24" value="4x4" style="rounded=0;whiteSpace=wrap;html=1;fillColor=#dae8fc;strokeColor=#6c8ebf;opacity=50;" vertex="1" parent="1">
                    <mxGeometry x="1600" y="640" width="128" height="128" as="geometry"/>
                </mxCell>
                <mxCell id="25" value="4x4" style="rounded=0;whiteSpace=wrap;html=1;fillColor=#dae8fc;strokeColor=#6c8ebf;opacity=50;" vertex="1" parent="1">
                    <mxGeometry x="1408" y="640" width="128" height="128" as="geometry"/>
                </mxCell>
                <mxCell id="26" value="4x4" style="rounded=0;whiteSpace=wrap;html=1;fillColor=#dae8fc;strokeColor=#6c8ebf;opacity=50;" vertex="1" parent="1">
                    <mxGeometry x="1792" y="640" width="128" height="128" as="geometry"/>
                </mxCell>
                <mxCell id="27" value="4x4" style="rounded=0;whiteSpace=wrap;html=1;fillColor=#dae8fc;strokeColor=#6c8ebf;opacity=50;" vertex="1" parent="1">
                    <mxGeometry x="1216" y="832" width="128" height="128" as="geometry"/>
                </mxCell>
                <mxCell id="28" value="4x4" style="rounded=0;whiteSpace=wrap;html=1;fillColor=#dae8fc;strokeColor=#6c8ebf;opacity=50;" vertex="1" parent="1">
                    <mxGeometry x="1792" y="832" width="128" height="128" as="geometry"/>
                </mxCell>
                <mxCell id="29" value="4x4" style="rounded=0;whiteSpace=wrap;html=1;fillColor=#dae8fc;strokeColor=#6c8ebf;opacity=50;" vertex="1" parent="1">
                    <mxGeometry x="1408" y="832" width="128" height="128" as="geometry"/>
                </mxCell>
                <mxCell id="30" value="4x4" style="rounded=0;whiteSpace=wrap;html=1;fillColor=#dae8fc;strokeColor=#6c8ebf;opacity=50;" vertex="1" parent="1">
                    <mxGeometry x="1600" y="832" width="128" height="128" as="geometry"/>
                </mxCell>
                <mxCell id="31" value="4x4" style="rounded=0;whiteSpace=wrap;html=1;fillColor=#dae8fc;strokeColor=#6c8ebf;opacity=50;" vertex="1" parent="1">
                    <mxGeometry x="1216" y="1024" width="128" height="128" as="geometry"/>
                </mxCell>
                <mxCell id="32" value="4x4" style="rounded=0;whiteSpace=wrap;html=1;fillColor=#dae8fc;strokeColor=#6c8ebf;opacity=50;" vertex="1" parent="1">
                    <mxGeometry x="1792" y="1024" width="128" height="128" as="geometry"/>
                </mxCell>
                <mxCell id="33" value="4x4" style="rounded=0;whiteSpace=wrap;html=1;fillColor=#dae8fc;strokeColor=#6c8ebf;opacity=50;" vertex="1" parent="1">
                    <mxGeometry x="1408" y="1024" width="128" height="128" as="geometry"/>
                </mxCell>
                <mxCell id="34" value="4x4" style="rounded=0;whiteSpace=wrap;html=1;fillColor=#dae8fc;strokeColor=#6c8ebf;opacity=50;" vertex="1" parent="1">
                    <mxGeometry x="1600" y="1024" width="128" height="128" as="geometry"/>
                </mxCell>
                <mxCell id="37" value="" style="endArrow=classic;startArrow=classic;html=1;entryX=0.16;entryY=0;entryDx=0;entryDy=0;exitX=0.056;exitY=-0.002;exitDx=0;exitDy=0;exitPerimeter=0;entryPerimeter=0;" edge="1" parent="1">
                    <mxGeometry width="50" height="50" relative="1" as="geometry">
                        <mxPoint x="1215.592" y="382.336" as="sourcePoint"/>
                        <mxPoint x="1215.08" y="255.9999999999999" as="targetPoint"/>
                    </mxGeometry>
                </mxCell>
                <mxCell id="38" value="window_padding_y" style="edgeLabel;html=1;align=center;verticalAlign=middle;resizable=0;points=[];" vertex="1" connectable="0" parent="37">
                    <mxGeometry x="-0.1249" y="1" relative="1" as="geometry">
                        <mxPoint x="53" y="-9" as="offset"/>
                    </mxGeometry>
                </mxCell>
                <mxCell id="46" value="4" style="edgeLabel;html=1;align=center;verticalAlign=middle;resizable=0;points=[];fontSize=12;" vertex="1" connectable="0" parent="37">
                    <mxGeometry x="0.0245" y="1" relative="1" as="geometry">
                        <mxPoint as="offset"/>
                    </mxGeometry>
                </mxCell>
                <mxCell id="39" value="" style="endArrow=classic;startArrow=classic;html=1;exitX=0;exitY=0.5;exitDx=0;exitDy=0;" edge="1" parent="1">
                    <mxGeometry width="50" height="50" relative="1" as="geometry">
                        <mxPoint x="1024" y="447" as="sourcePoint"/>
                        <mxPoint x="1152" y="447" as="targetPoint"/>
                    </mxGeometry>
                </mxCell>
                <mxCell id="40" value="window_padding_x" style="edgeLabel;html=1;align=center;verticalAlign=middle;resizable=0;points=[];" vertex="1" connectable="0" parent="39">
                    <mxGeometry x="-0.0549" y="1" relative="1" as="geometry">
                        <mxPoint x="4" y="-15" as="offset"/>
                    </mxGeometry>
                </mxCell>
                <mxCell id="44" value="&amp;nbsp; &amp;nbsp; 4&amp;nbsp; &amp;nbsp;&amp;nbsp;" style="edgeLabel;html=1;align=center;verticalAlign=middle;resizable=0;points=[];fontSize=12;labelBackgroundColor=default;" vertex="1" connectable="0" parent="39">
                    <mxGeometry x="-0.1236" relative="1" as="geometry">
                        <mxPoint as="offset"/>
                    </mxGeometry>
                </mxCell>
                <mxCell id="42" value="&lt;span style=&quot;&quot;&gt;&amp;nbsp;&lt;br&gt;&amp;nbsp;2&amp;nbsp;&lt;/span&gt;" style="endArrow=classic;startArrow=classic;html=1;entryX=0;entryY=0.5;entryDx=0;entryDy=0;exitX=0.001;exitY=0.154;exitDx=0;exitDy=0;exitPerimeter=0;labelBackgroundColor=none;" edge="1" parent="1" source="18" target="19">
                    <mxGeometry x="0.0003" width="50" height="50" relative="1" as="geometry">
                        <mxPoint x="1216" y="658" as="sourcePoint"/>
                        <mxPoint x="1266" y="608" as="targetPoint"/>
                        <mxPoint as="offset"/>
                    </mxGeometry>
                </mxCell>
                <mxCell id="43" value="&lt;font style=&quot;font-size: 8px;&quot;&gt;Sprite_&lt;br&gt;Padding_&lt;br&gt;X&lt;/font&gt;" style="edgeLabel;html=1;align=center;verticalAlign=middle;resizable=0;points=[];labelBackgroundColor=none;" vertex="1" connectable="0" parent="42">
                    <mxGeometry x="-0.1178" y="-1" relative="1" as="geometry">
                        <mxPoint x="3" y="-22" as="offset"/>
                    </mxGeometry>
                </mxCell>
                <mxCell id="47" value="" style="endArrow=classic;startArrow=classic;html=1;fontSize=12;exitX=0.5;exitY=0;exitDx=0;exitDy=0;entryX=0.154;entryY=0.001;entryDx=0;entryDy=0;entryPerimeter=0;" edge="1" parent="1" source="19" target="18">
                    <mxGeometry width="50" height="50" relative="1" as="geometry">
                        <mxPoint x="1408" y="530" as="sourcePoint"/>
                        <mxPoint x="1458" y="480" as="targetPoint"/>
                    </mxGeometry>
                </mxCell>
                <mxCell id="49" value="&amp;nbsp;2&amp;nbsp;" style="edgeLabel;html=1;align=center;verticalAlign=middle;resizable=0;points=[];fontSize=12;labelBackgroundColor=none;" vertex="1" connectable="0" parent="47">
                    <mxGeometry x="0.0529" relative="1" as="geometry">
                        <mxPoint x="-7" y="1" as="offset"/>
                    </mxGeometry>
                </mxCell>
                <mxCell id="48" value="&lt;font style=&quot;font-size: 8px;&quot;&gt;Sprite_Padding_Y&lt;br&gt;&lt;/font&gt;" style="edgeLabel;html=1;align=center;verticalAlign=middle;resizable=0;points=[];labelBackgroundColor=none;" vertex="1" connectable="0" parent="1">
                    <mxGeometry x="1313.9989685969483" y="415.00100718251923" as="geometry"/>
                </mxCell>
                <mxCell id="52" value="" style="endArrow=classic;startArrow=classic;html=1;labelBackgroundColor=none;fontSize=12;" edge="1" parent="1">
                    <mxGeometry width="50" height="50" relative="1" as="geometry">
                        <mxPoint x="1024" y="192" as="sourcePoint"/>
                        <mxPoint x="1216" y="192" as="targetPoint"/>
                    </mxGeometry>
                </mxCell>
                <mxCell id="53" value="window_padding_x + sprite_padding_x" style="edgeLabel;html=1;align=center;verticalAlign=middle;resizable=0;points=[];fontSize=12;" vertex="1" connectable="0" parent="52">
                    <mxGeometry x="0.2461" y="3" relative="1" as="geometry">
                        <mxPoint x="-26" y="-13" as="offset"/>
                    </mxGeometry>
                </mxCell>
                <mxCell id="54" value="" style="endArrow=classic;startArrow=classic;html=1;labelBackgroundColor=none;fontSize=12;" edge="1" parent="1">
                    <mxGeometry width="50" height="50" relative="1" as="geometry">
                        <mxPoint x="960" y="448" as="sourcePoint"/>
                        <mxPoint x="960" y="256" as="targetPoint"/>
                    </mxGeometry>
                </mxCell>
                <mxCell id="55" value="window_padding_y +&lt;br&gt;sprite_padding_y" style="edgeLabel;html=1;align=center;verticalAlign=middle;resizable=0;points=[];fontSize=12;" vertex="1" connectable="0" parent="54">
                    <mxGeometry x="0.5219" y="3" relative="1" as="geometry">
                        <mxPoint x="-61" y="49" as="offset"/>
                    </mxGeometry>
                </mxCell>
            </root>
        </mxGraphModel>
    </diagram>
</mxfile>
